<svg xmlns="http://www.w3.org/2000/svg" viewBox="-29 15 850 150">
<style>
.a{fill:rgba(100,100,215,.5);stroke:none}
.b{fill:none;stroke:#555555}
.c{fill:#555555;stroke:none}
.d{fill:rgba(255,255,0,0.6);stroke:none}
.e{fill:#77dddd;stroke:none}
.f{fill:#000;stroke:none;font-family:Verdana;font-size:10px}
.g{fill:#000;stroke:none;font-family:Verdana;font-size:12.5px}
</style>
<path class="a" d="M24,65 L25,65 L25,134 L24,134 L24,65"/>
<path class="a" d="M50,65 L51,65 L51,134 L50,134 L50,65"/>
<path class="a" d="M53,65 L54,65 L54,134 L53,134 L53,65"/>
<path class="a" d="M123,65 L124,65 L124,134 L123,134 L123,65"/>
<path class="a" d="M127,65 L128,65 L128,134 L127,134 L127,65"/>
<path class="a" d="M152,65 L153,65 L153,134 L152,134 L152,65"/>
<path class="a" d="M156,65 L157,65 L157,134 L156,134 L156,65"/>
<path class="a" d="M229,65 L230,65 L230,134 L229,134 L229,65"/>
<path class="a" d="M232,65 L233,65 L233,134 L232,134 L232,65"/>
<path class="a" d="M296,65 L297,65 L297,134 L296,134 L296,65"/>
<path class="a" d="M295,65 L296,65 L296,134 L295,134 L295,65"/>
<path class="a" d="M301,65 L302,65 L302,134 L301,134 L301,65"/>
<path class="a" d="M305,65 L306,65 L306,134 L305,134 L305,65"/>
<path class="a" d="M343,65 L344,65 L344,134 L343,134 L343,65"/>
<path class="a" d="M347,65 L348,65 L348,134 L347,134 L347,65"/>
<path class="a" d="M383,65 L384,65 L384,134 L383,134 L383,65"/>
<path class="a" d="M386,65 L387,65 L387,134 L386,134 L386,65"/>
<path class="a" d="M416,65 L417,65 L417,134 L416,134 L416,65"/>
<path class="a" d="M420,65 L421,65 L421,134 L420,134 L420,65"/>
<path class="a" d="M437,65 L438,65 L438,134 L437,134 L437,65"/>
<path class="a" d="M440,65 L441,65 L441,134 L440,134 L440,65"/>
<path class="a" d="M491,65 L492,65 L492,134 L491,134 L491,65"/>
<path class="a" d="M494,65 L495,65 L495,134 L494,134 L494,65"/>
<path class="a" d="M511,65 L512,65 L512,134 L511,134 L511,65"/>
<path class="a" d="M515,65 L516,65 L516,134 L515,134 L515,65"/>
<path class="a" d="M596,65 L597,65 L597,134 L596,134 L596,65"/>
<path class="a" d="M599,65 L600,65 L600,134 L599,134 L599,65"/>
<path class="a" d="M613,65 L614,65 L614,134 L613,134 L613,65"/>
<path class="a" d="M617,65 L618,65 L618,134 L617,134 L617,65"/>
<path class="a" d="M649,65 L650,65 L650,134 L649,134 L649,65"/>
<path class="a" d="M653,65 L654,65 L654,134 L653,134 L653,65"/>
<path class="a" d="M715,65 L716,65 L716,134 L715,134 L715,65"/>
<path class="b" transform="translate(139.5,100.921)" d="M183.85,0 C173.85,-54.4208 10,-54.4208 0,0 "/>
<path class="c" transform="translate(139.5,100.921)" d="M183.85,0 L184.155,-9.65179 L181.984,-5.28733 L177.554,-7.32198 L183.85,0"/>
<path class="b" transform="translate(139.5,100.921)" d="M183.85,0 L184.155,-9.65179 L181.984,-5.28733 L177.554,-7.32198 L183.85,0"/>
<path class="d" d="M146,54 L331,54 L331,66 L146,66 L146,54"/>
<text class="f" x="146" y="64">[track1_EnjuParser_R100] arg1Of</text>
<path class="b" transform="translate(139.5,101.171)" d="M224.85,0 C214.85,-64.6708 10,-64.6708 0,0 "/>
<path class="c" transform="translate(139.5,101.171)" d="M224.85,0 L225.475,-9.63636 L223.16,-5.34633 L218.8,-7.52681 L224.85,0"/>
<path class="b" transform="translate(139.5,101.171)" d="M224.85,0 L225.475,-9.63636 L223.16,-5.34633 L218.8,-7.52681 L224.85,0"/>
<path class="d" d="M166,47 L351,47 L351,59 L166,59 L166,47"/>
<text class="f" x="166" y="57">[track1_EnjuParser_R101] arg1Of</text>
<path class="b" transform="translate(364.033,100.942)" d="M0,0 C10,-33.4417 90.9333,-33.4417 100.933,0 "/>
<path class="c" transform="translate(364.033,100.942)" d="M0,0 L7.28635,-6.33712 L2.60942,-4.9628 L1.09059,-9.59482 L0,0"/>
<path class="b" transform="translate(364.033,100.942)" d="M0,0 L7.28635,-6.33712 L2.60942,-4.9628 L1.09059,-9.59482 L0,0"/>
<path class="d" d="M329,70 L514,70 L514,82 L329,82 L329,70"/>
<text class="f" x="329" y="80">[track1_EnjuParser_R102] arg2Of</text>
<path class="b" transform="translate(400.092,100.912)" d="M0,0 C10,-24.4125 54.8167,-24.4125 64.8167,0 "/>
<path class="c" transform="translate(400.092,100.912)" d="M0,0 L7.81715,-5.6694 L3.03719,-4.71317 L1.93305,-9.46115 L0,0"/>
<path class="b" transform="translate(400.092,100.912)" d="M0,0 L7.81715,-5.6694 L3.03719,-4.71317 L1.93305,-9.46115 L0,0"/>
<path class="d" d="M347,77 L532,77 L532,89 L347,89 L347,77"/>
<text class="f" x="347" y="87">[track1_EnjuParser_R103] arg1Of</text>
<path class="b" transform="translate(139.5,100.925)" d="M288.367,0 C278.367,-80.425 10,-80.425 0,0 "/>
<path class="c" transform="translate(139.5,100.925)" d="M288.367,0 L289.491,-9.59092 L286.957,-5.42684 L282.716,-7.83071 L288.367,0"/>
<path class="b" transform="translate(139.5,100.925)" d="M288.367,0 L289.491,-9.59092 L286.957,-5.42684 L282.716,-7.83071 L288.367,0"/>
<path class="d" d="M198,35 L383,35 L383,47 L198,47 L198,35"/>
<text class="f" x="198" y="45">[track1_EnjuParser_R104] arg1Of</text>
<path class="b" transform="translate(427.792,101.266)" d="M0,0 C10,-17.6875 27.4167,-17.6875 37.4167,0 "/>
<path class="c" transform="translate(427.792,101.266)" d="M0,0 L8.20273,-5.09562 L3.3666,-4.4838 L2.60497,-9.29861 L0,0"/>
<path class="b" transform="translate(427.792,101.266)" d="M0,0 L8.20273,-5.09562 L3.3666,-4.4838 L2.60497,-9.29861 L0,0"/>
<path class="d" d="M361,82 L546,82 L546,94 L361,94 L361,82"/>
<text class="f" x="361" y="92">[track1_EnjuParser_R105] arg2Of</text>
<path class="b" transform="translate(139.5,101.279)" d="M325.783,0 C315.783,-89.7792 10,-89.7792 0,0 "/>
<path class="c" transform="translate(139.5,101.279)" d="M325.783,0 L327.158,-9.55831 L324.516,-5.46178 L320.339,-7.9755 L325.783,0"/>
<path class="b" transform="translate(139.5,101.279)" d="M325.783,0 L327.158,-9.55831 L324.516,-5.46178 L320.339,-7.9755 L325.783,0"/>
<path class="d" d="M217,28 L402,28 L402,40 L217,40 L217,28"/>
<text class="f" x="217" y="38">[track1_EnjuParser_R106] arg2Of</text>
<path class="b" transform="translate(139.5,101.604)" d="M363.083,0 C353.083,-99.1042 10,-99.1042 0,0 "/>
<path class="c" transform="translate(139.5,101.604)" d="M363.083,0 L364.535,-9.54688 L361.86,-5.47186 L357.704,-8.01928 L363.083,0"/>
<path class="b" transform="translate(139.5,101.604)" d="M363.083,0 L364.535,-9.54688 L361.86,-5.47186 L357.704,-8.01928 L363.083,0"/>
<path class="d" d="M235,21 L420,21 L420,33 L235,33 L235,21"/>
<text class="f" x="235" y="31">[track1_EnjuParser_R107] arg1Of</text>
<path class="b" transform="translate(501.917,100.75)" d="M0,0 C10,-34.25 93.1667,-34.25 103.167,0 "/>
<path class="c" transform="translate(501.917,100.75)" d="M0,0 L7.18792,-6.44855 L2.5327,-5.00239 L0.942738,-9.61048 L0,0"/>
<path class="b" transform="translate(501.917,100.75)" d="M0,0 L7.18792,-6.44855 L2.5327,-5.00239 L0.942738,-9.61048 L0,0"/>
<path class="d" d="M468,69 L653,69 L653,81 L468,81 L468,69"/>
<text class="f" x="468" y="79">[track1_EnjuParser_R108] arg2Of</text>
<path class="b" transform="translate(555.083,100.667)" d="M50.8334,0 C40.8334,-21.1667 10,-21.1667 0,0 "/>
<path class="c" transform="translate(555.083,100.667)" d="M50.8334,0 L48.6286,-9.40154 L47.6617,-4.62372 L42.8562,-5.44187 L50.8334,0"/>
<path class="b" transform="translate(555.083,100.667)" d="M50.8334,0 L48.6286,-9.40154 L47.6617,-4.62372 L42.8562,-5.44187 L50.8334,0"/>
<path class="d" d="M495,79 L680,79 L680,91 L495,91 L495,79"/>
<text class="f" x="495" y="89">[track1_EnjuParser_R109] arg1Of</text>
<path class="b" transform="translate(605.508,101.329)" d="M0,0 C10,-27.8292 67.9833,-27.8292 77.9833,0 "/>
<path class="c" transform="translate(605.508,101.329)" d="M0,0 L7.58607,-5.97508 L2.84781,-4.82995 L1.55617,-9.53039 L0,0"/>
<path class="b" transform="translate(605.508,101.329)" d="M0,0 L7.58607,-5.97508 L2.84781,-4.82995 L1.55617,-9.53039 L0,0"/>
<path class="d" d="M559,74 L744,74 L744,86 L559,86 L559,74"/>
<text class="f" x="559" y="84">[track1_EnjuParser_R110] arg2Of</text>
<path class="b" transform="translate(633.008,101.579)" d="M0,0 C10,-21.0792 40.9833,-21.0792 50.9833,0 "/>
<path class="c" transform="translate(633.008,101.579)" d="M0,0 L7.99144,-5.42096 L3.18379,-4.6154 L2.2294,-9.39573 L0,0"/>
<path class="b" transform="translate(633.008,101.579)" d="M0,0 L7.99144,-5.42096 L3.18379,-4.6154 L2.2294,-9.39573 L0,0"/>
<path class="d" d="M573,79 L758,79 L758,91 L573,91 L573,79"/>
<text class="f" x="573" y="89">[track1_EnjuParser_R111] arg1Of</text>
<path class="b" transform="translate(36.85,101.658)" d="M0,0 C10,-21.1583 41.3,-21.1583 51.3,0 "/>
<path class="c" transform="translate(36.85,101.658)" d="M0,0 L7.98977,-5.42343 L3.18237,-4.61638 L2.2265,-9.39642 L0,0"/>
<path class="b" transform="translate(36.85,101.658)" d="M0,0 L7.98977,-5.42343 L3.18237,-4.61638 L2.2265,-9.39642 L0,0"/>
<path class="d" d="M-20,79 L158,79 L158,91 L-20,91 L-20,79"/>
<text class="f" x="-20" y="89">[track1_EnjuParser_R95] arg1Of</text>
<path class="b" transform="translate(87.75,101.583)" d="M51.5,0 C41.5,-21.0833 10,-21.0833 0,0 "/>
<path class="c" transform="translate(87.75,101.583)" d="M51.5,0 L49.2494,-9.39067 L48.3058,-4.60819 L43.4963,-5.40287 L51.5,0"/>
<path class="b" transform="translate(87.75,101.583)" d="M51.5,0 L49.2494,-9.39067 L48.3058,-4.60819 L43.4963,-5.40287 L51.5,0"/>
<path class="d" d="M31,79 L209,79 L209,91 L31,91 L31,79"/>
<text class="f" x="31" y="89">[track1_EnjuParser_R96] arg1Of</text>
<path class="b" transform="translate(139.367,101.025)" d="M0,0 C10,-39.525 114.267,-39.525 124.267,0 "/>
<path class="c" transform="translate(139.367,101.025)" d="M0,0 L6.92547,-6.72963 L2.33152,-5.09926 L0.559347,-9.64039 L0,0"/>
<path class="b" transform="translate(139.367,101.025)" d="M0,0 L6.92547,-6.72963 L2.33152,-5.09926 L0.559347,-9.64039 L0,0"/>
<path class="d" d="M119,66 L297,66 L297,78 L119,78 L119,66"/>
<text class="f" x="119" y="76">[track1_EnjuParser_R97] arg2Of</text>
<path class="b" transform="translate(191.717,100.85)" d="M0,0 C10,-26.35 61.5667,-26.35 71.5667,0 "/>
<path class="c" transform="translate(191.717,100.85)" d="M0,0 L7.66231,-5.87699 L2.9097,-4.79292 L1.67864,-9.50958 L0,0"/>
<path class="b" transform="translate(191.717,100.85)" d="M0,0 L7.66231,-5.87699 L2.9097,-4.79292 L1.67864,-9.50958 L0,0"/>
<path class="d" d="M145,75 L323,75 L323,87 L145,87 L145,75"/>
<text class="f" x="145" y="85">[track1_EnjuParser_R98] arg1Of</text>
<path class="b" transform="translate(139.225,101.596)" d="M158.55,0 C148.55,-49.0958 10,-49.0958 0,0 "/>
<path class="c" transform="translate(139.225,101.596)" d="M158.55,0 L158.524,-9.65657 L156.504,-5.22028 L152.007,-7.10196 L158.55,0"/>
<path class="b" transform="translate(139.225,101.596)" d="M158.55,0 L158.524,-9.65657 L156.504,-5.22028 L152.007,-7.10196 L158.55,0"/>
<path class="d" d="M136,58 L314,58 L314,70 L136,70 L136,58"/>
<text class="f" x="136" y="68">[track1_EnjuParser_R99] arg1Of</text>
<path class="a" d="M24,131 L47,131 L47,149 L24,149 L24,131"/>
<path class="a" d="M24,131 L47,131 L47,132 L24,132 L24,131"/>
<path class="a" d="M24,148 L47,148 L47,149 L24,149 L24,148"/>
<text class="g" x="24" y="145">ROI</text>
<path class="a" d="M52,131 L122,131 L122,149 L52,149 L52,131"/>
<path class="a" d="M52,131 L122,131 L122,132 L52,132 L52,131"/>
<path class="a" d="M52,148 L122,148 L122,149 L52,149 L52,148"/>
<text class="g" x="52" y="145">production</text>
<path class="a" d="M127,131 L151,131 L151,149 L127,149 L127,131"/>
<path class="a" d="M127,131 L151,131 L151,132 L127,132 L127,131"/>
<path class="a" d="M127,148 L151,148 L151,149 L127,149 L127,148"/>
<text class="g" x="127" y="145">and</text>
<path class="a" d="M156,131 L227,131 L227,149 L156,149 L156,131"/>
<path class="a" d="M156,131 L227,131 L227,132 L156,132 L156,131"/>
<path class="a" d="M156,148 L227,148 L227,149 L156,149 L156,148"/>
<text class="g" x="156" y="145">NF-kappaB</text>
<path class="a" d="M232,131 L298,131 L298,149 L232,149 L232,131"/>
<path class="a" d="M232,131 L298,131 L298,132 L232,132 L232,131"/>
<path class="a" d="M232,148 L298,148 L298,149 L232,149 L232,148"/>
<text class="g" x="232" y="145">activation</text>
<path class="a" d="M298,131 L303,131 L303,149 L298,149 L298,131"/>
<path class="a" d="M298,131 L303,131 L303,132 L298,132 L298,131"/>
<path class="a" d="M298,148 L303,148 L303,149 L298,149 L298,148"/>
<text class="g" x="298" y="145">,</text>
<path class="a" d="M308,131 L346,131 L346,149 L308,149 L308,131"/>
<path class="a" d="M308,131 L346,131 L346,132 L308,132 L308,131"/>
<path class="a" d="M308,148 L346,148 L346,149 L308,149 L308,148"/>
<text class="g" x="308" y="145">which</text>
<path class="a" d="M351,131 L386,131 L386,149 L351,149 L351,131"/>
<path class="a" d="M351,131 L386,131 L386,132 L351,132 L351,131"/>
<path class="a" d="M351,148 L386,148 L386,149 L351,149 L351,148"/>
<text class="g" x="351" y="145">could</text>
<path class="a" d="M391,131 L421,131 L421,149 L391,149 L391,131"/>
<path class="a" d="M391,131 L421,131 L421,132 L391,132 L391,131"/>
<path class="a" d="M391,148 L421,148 L421,149 L391,149 L391,148"/>
<text class="g" x="391" y="145">both</text>
<path class="a" d="M426,131 L442,131 L442,149 L426,149 L426,131"/>
<path class="a" d="M426,131 L442,131 L442,132 L426,132 L426,131"/>
<path class="a" d="M426,148 L442,148 L442,149 L426,149 L426,148"/>
<text class="g" x="426" y="145">be</text>
<path class="a" d="M447,131 L497,131 L497,149 L447,149 L447,131"/>
<path class="a" d="M447,131 L497,131 L497,132 L447,132 L447,131"/>
<path class="a" d="M447,148 L497,148 L497,149 L447,149 L447,148"/>
<text class="g" x="447" y="145">blocked</text>
<path class="a" d="M502,131 L518,131 L518,149 L502,149 L502,131"/>
<path class="a" d="M502,131 L518,131 L518,132 L502,132 L502,131"/>
<path class="a" d="M502,148 L518,148 L518,149 L502,149 L502,148"/>
<text class="g" x="502" y="145">by</text>
<path class="a" d="M523,131 L603,131 L603,149 L523,149 L523,131"/>
<path class="a" d="M523,131 L603,131 L603,132 L523,132 L523,131"/>
<path class="a" d="M523,148 L603,148 L603,149 L523,149 L523,148"/>
<text class="g" x="523" y="145">antioxidants</text>
<path class="a" d="M608,131 L621,131 L621,149 L608,149 L608,131"/>
<path class="a" d="M608,131 L621,131 L621,132 L608,132 L608,131"/>
<path class="a" d="M608,148 L621,148 L621,149 L608,149 L608,148"/>
<text class="g" x="608" y="145">or</text>
<path class="a" d="M626,131 L658,131 L658,149 L626,149 L626,131"/>
<path class="a" d="M626,131 L658,131 L658,132 L626,132 L626,131"/>
<path class="a" d="M626,148 L658,148 L658,149 L626,149 L626,148"/>
<text class="g" x="626" y="145">FLAP</text>
<path class="a" d="M663,131 L722,131 L722,149 L663,149 L663,131"/>
<path class="a" d="M663,131 L722,131 L722,132 L663,132 L663,131"/>
<path class="a" d="M663,148 L722,148 L722,149 L663,149 L663,148"/>
<text class="g" x="663" y="145">inhibitors</text>
<path class="e" d="M37,101 L39,101 C42.3137,101 45,103.686 45,107 L45,109 C45,112.314 42.3137,115 39,115 L37,115 C33.6863,115 31,112.314 31,109 L31,107 C31,103.686 33.6863,101 37,101 M38,103 C40.7614,103 43,105.239 43,108 C43,110.761 40.7614,113 38,113 C35.2386,113 33,110.761 33,108 C33,105.239 35.2386,103 38,103 "/>
<path class="a" d="M37,102 L39,102 C41.7614,102 44,104.239 44,107 L44,109 C44,111.761 41.7614,114 39,114 L37,114 C34.2386,114 32,111.761 32,109 L32,107 C32,104.239 34.2386,102 37,102 "/>
<path class="e" d="M29,116 L46,116 C48.2091,116 50,117.343 50,119 L50,130 C50,131.657 48.2091,133 46,133 L29,133 C26.7909,133 25,131.657 25,130 L25,119 C25,117.343 26.7909,116 29,116 "/>
<text class="g" x="29" y="129">NN</text>
<path class="e" d="M88,101 L90,101 C93.3137,101 96,103.686 96,107 L96,109 C96,112.314 93.3137,115 90,115 L88,115 C84.6863,115 82,112.314 82,109 L82,107 C82,103.686 84.6863,101 88,101 M89,103 C91.7614,103 94,105.239 94,108 C94,110.761 91.7614,113 89,113 C86.2386,113 84,110.761 84,108 C84,105.239 86.2386,103 89,103 "/>
<path class="a" d="M88,102 L90,102 C92.7614,102 95,104.239 95,107 L95,109 C95,111.761 92.7614,114 90,114 L88,114 C85.2386,114 83,111.761 83,109 L83,107 C83,104.239 85.2386,102 88,102 "/>
<path class="e" d="M58,116 L119,116 C121.209,116 123,117.343 123,119 L123,130 C123,131.657 121.209,133 119,133 L58,133 C55.7909,133 54,131.657 54,130 L54,119 C54,117.343 55.7909,116 58,116 "/>
<text class="g" x="80" y="129">NN</text>
<path class="e" d="M139,101 L141,101 C144.314,101 147,103.686 147,107 L147,109 C147,112.314 144.314,115 141,115 L139,115 C135.686,115 133,112.314 133,109 L133,107 C133,103.686 135.686,101 139,101 M140,103 C142.761,103 145,105.239 145,108 C145,110.761 142.761,113 140,113 C137.239,113 135,110.761 135,108 C135,105.239 137.239,103 140,103 "/>
<path class="a" d="M139,102 L141,102 C143.761,102 146,104.239 146,107 L146,109 C146,111.761 143.761,114 141,114 L139,114 C136.239,114 134,111.761 134,109 L134,107 C134,104.239 136.239,102 139,102 "/>
<path class="e" d="M132,116 L148,116 C150.209,116 152,117.343 152,119 L152,130 C152,131.657 150.209,133 148,133 L132,133 C129.791,133 128,131.657 128,130 L128,119 C128,117.343 129.791,116 132,116 "/>
<text class="g" x="132" y="129">CC</text>
<path class="e" d="M192,101 L194,101 C197.314,101 200,103.686 200,107 L200,109 C200,112.314 197.314,115 194,115 L192,115 C188.686,115 186,112.314 186,109 L186,107 C186,103.686 188.686,101 192,101 M193,103 C195.761,103 198,105.239 198,108 C198,110.761 195.761,113 193,113 C190.239,113 188,110.761 188,108 C188,105.239 190.239,103 193,103 "/>
<path class="a" d="M192,102 L194,102 C196.761,102 199,104.239 199,107 L199,109 C199,111.761 196.761,114 194,114 L192,114 C189.239,114 187,111.761 187,109 L187,107 C187,104.239 189.239,102 192,102 "/>
<path class="e" d="M161,116 L225,116 C227.209,116 229,117.343 229,119 L229,130 C229,131.657 227.209,133 225,133 L161,133 C158.791,133 157,131.657 157,130 L157,119 C157,117.343 158.791,116 161,116 "/>
<text class="g" x="184" y="129">NN</text>
<path class="e" d="M264,101 L266,101 C269.314,101 272,103.686 272,107 L272,109 C272,112.314 269.314,115 266,115 L264,115 C260.686,115 258,112.314 258,109 L258,107 C258,103.686 260.686,101 264,101 M265,103 C267.761,103 270,105.239 270,108 C270,110.761 267.761,113 265,113 C262.239,113 260,110.761 260,108 C260,105.239 262.239,103 265,103 "/>
<path class="a" d="M264,102 L266,102 C268.761,102 271,104.239 271,107 L271,109 C271,111.761 268.761,114 266,114 L264,114 C261.239,114 259,111.761 259,109 L259,107 C259,104.239 261.239,102 264,102 "/>
<path class="e" d="M237,116 L292,116 C294.209,116 296,117.343 296,119 L296,130 C296,131.657 294.209,133 292,133 L237,133 C234.791,133 233,131.657 233,130 L233,119 C233,117.343 234.791,116 237,116 "/>
<text class="g" x="256" y="129">NN</text>
<path class="e" d="M298,101 L300,101 C303.314,101 306,103.686 306,107 L306,109 C306,112.314 303.314,115 300,115 L298,115 C294.686,115 292,112.314 292,109 L292,107 C292,103.686 294.686,101 298,101 M299,103 C301.761,103 304,105.239 304,108 C304,110.761 301.761,113 299,113 C296.239,113 294,110.761 294,108 C294,105.239 296.239,103 299,103 "/>
<path class="a" d="M298,102 L300,102 C302.761,102 305,104.239 305,107 L305,109 C305,111.761 302.761,114 300,114 L298,114 C295.239,114 293,111.761 293,109 L293,107 C293,104.239 295.239,102 298,102 "/>
<path class="e" d="M298,116 L299,116 C300.105,116 301,116.448 301,117 L301,132 C301,132.552 300.105,133 299,133 L298,133 C296.895,133 296,132.552 296,132 L296,117 C296,116.448 296.895,116 298,116 "/>
<text class="g" x="300" y="129">-COMMA-</text>
<path class="e" d="M323,101 L325,101 C328.314,101 331,103.686 331,107 L331,109 C331,112.314 328.314,115 325,115 L323,115 C319.686,115 317,112.314 317,109 L317,107 C317,103.686 319.686,101 323,101 M324,103 C326.761,103 329,105.239 329,108 C329,110.761 326.761,113 324,113 C321.239,113 319,110.761 319,108 C319,105.239 321.239,103 324,103 "/>
<path class="a" d="M323,102 L325,102 C327.761,102 330,104.239 330,107 L330,109 C330,111.761 327.761,114 325,114 L323,114 C320.239,114 318,111.761 318,109 L318,107 C318,104.239 320.239,102 323,102 "/>
<path class="e" d="M310,116 L339,116 C341.209,116 343,117.343 343,119 L343,130 C343,131.657 341.209,133 339,133 L310,133 C307.791,133 306,131.657 306,130 L306,119 C306,117.343 307.791,116 310,116 "/>
<text class="g" x="310" y="129">WDT</text>
<path class="e" d="M364,101 L366,101 C369.314,101 372,103.686 372,107 L372,109 C372,112.314 369.314,115 366,115 L364,115 C360.686,115 358,112.314 358,109 L358,107 C358,103.686 360.686,101 364,101 M365,103 C367.761,103 370,105.239 370,108 C370,110.761 367.761,113 365,113 C362.239,113 360,110.761 360,108 C360,105.239 362.239,103 365,103 "/>
<path class="a" d="M364,102 L366,102 C368.761,102 371,104.239 371,107 L371,109 C371,111.761 368.761,114 366,114 L364,114 C361.239,114 359,111.761 359,109 L359,107 C359,104.239 361.239,102 364,102 "/>
<path class="e" d="M352,116 L379,116 C381.209,116 383,117.343 383,119 L383,130 C383,131.657 381.209,133 379,133 L352,133 C349.791,133 348,131.657 348,130 L348,119 C348,117.343 349.791,116 352,116 "/>
<text class="g" x="355" y="129">MD</text>
<path class="e" d="M400,101 L402,101 C405.314,101 408,103.686 408,107 L408,109 C408,112.314 405.314,115 402,115 L400,115 C396.686,115 394,112.314 394,109 L394,107 C394,103.686 396.686,101 400,101 M401,103 C403.761,103 406,105.239 406,108 C406,110.761 403.761,113 401,113 C398.239,113 396,110.761 396,108 C396,105.239 398.239,103 401,103 "/>
<path class="a" d="M400,102 L402,102 C404.761,102 407,104.239 407,107 L407,109 C407,111.761 404.761,114 402,114 L400,114 C397.239,114 395,111.761 395,109 L395,107 C395,104.239 397.239,102 400,102 "/>
<path class="e" d="M391,116 L412,116 C414.209,116 416,117.343 416,119 L416,130 C416,131.657 414.209,133 412,133 L391,133 C388.791,133 387,131.657 387,130 L387,119 C387,117.343 388.791,116 391,116 "/>
<text class="g" x="392" y="129">DT</text>
<path class="e" d="M428,101 L430,101 C433.314,101 436,103.686 436,107 L436,109 C436,112.314 433.314,115 430,115 L428,115 C424.686,115 422,112.314 422,109 L422,107 C422,103.686 424.686,101 428,101 M429,103 C431.761,103 434,105.239 434,108 C434,110.761 431.761,113 429,113 C426.239,113 424,110.761 424,108 C424,105.239 426.239,103 429,103 "/>
<path class="a" d="M428,102 L430,102 C432.761,102 435,104.239 435,107 L435,109 C435,111.761 432.761,114 430,114 L428,114 C425.239,114 423,111.761 423,109 L423,107 C423,104.239 425.239,102 428,102 "/>
<path class="e" d="M425,116 L433,116 C435.209,116 437,117.343 437,119 L437,130 C437,131.657 435.209,133 433,133 L425,133 C422.791,133 421,131.657 421,130 L421,119 C421,117.343 422.791,116 425,116 "/>
<text class="g" x="425" y="129">VB</text>
<path class="e" d="M465,101 L467,101 C470.314,101 473,103.686 473,107 L473,109 C473,112.314 470.314,115 467,115 L465,115 C461.686,115 459,112.314 459,109 L459,107 C459,103.686 461.686,101 465,101 M466,103 C468.761,103 471,105.239 471,108 C471,110.761 468.761,113 466,113 C463.239,113 461,110.761 461,108 C461,105.239 463.239,103 466,103 "/>
<path class="a" d="M465,102 L467,102 C469.761,102 472,104.239 472,107 L472,109 C472,111.761 469.761,114 467,114 L465,114 C462.239,114 460,111.761 460,109 L460,107 C460,104.239 462.239,102 465,102 "/>
<path class="e" d="M445,116 L487,116 C489.209,116 491,117.343 491,119 L491,130 C491,131.657 489.209,133 487,133 L445,133 C442.791,133 441,131.657 441,130 L441,119 C441,117.343 442.791,116 445,116 "/>
<text class="g" x="458" y="129">VB</text>
<path class="e" d="M502,101 L504,101 C507.314,101 510,103.686 510,107 L510,109 C510,112.314 507.314,115 504,115 L502,115 C498.686,115 496,112.314 496,109 L496,107 C496,103.686 498.686,101 502,101 M503,103 C505.761,103 508,105.239 508,108 C508,110.761 505.761,113 503,113 C500.239,113 498,110.761 498,108 C498,105.239 500.239,103 503,103 "/>
<path class="a" d="M502,102 L504,102 C506.761,102 509,104.239 509,107 L509,109 C509,111.761 506.761,114 504,114 L502,114 C499.239,114 497,111.761 497,109 L497,107 C497,104.239 499.239,102 502,102 "/>
<path class="e" d="M499,116 L507,116 C509.209,116 511,117.343 511,119 L511,130 C511,131.657 509.209,133 507,133 L499,133 C496.791,133 495,131.657 495,130 L495,119 C495,117.343 496.791,116 499,116 "/>
<text class="g" x="499" y="129">IN</text>
<path class="e" d="M555,101 L557,101 C560.314,101 563,103.686 563,107 L563,109 C563,112.314 560.314,115 557,115 L555,115 C551.686,115 549,112.314 549,109 L549,107 C549,103.686 551.686,101 555,101 M556,103 C558.761,103 561,105.239 561,108 C561,110.761 558.761,113 556,113 C553.239,113 551,110.761 551,108 C551,105.239 553.239,103 556,103 "/>
<path class="a" d="M555,102 L557,102 C559.761,102 562,104.239 562,107 L562,109 C562,111.761 559.761,114 557,114 L555,114 C552.239,114 550,111.761 550,109 L550,107 C550,104.239 552.239,102 555,102 "/>
<path class="e" d="M520,116 L592,116 C594.209,116 596,117.343 596,119 L596,130 C596,131.657 594.209,133 592,133 L520,133 C517.791,133 516,131.657 516,130 L516,119 C516,117.343 517.791,116 520,116 "/>
<text class="g" x="547" y="129">NN</text>
<path class="e" d="M606,101 L608,101 C611.314,101 614,103.686 614,107 L614,109 C614,112.314 611.314,115 608,115 L606,115 C602.686,115 600,112.314 600,109 L600,107 C600,103.686 602.686,101 606,101 M607,103 C609.761,103 612,105.239 612,108 C612,110.761 609.761,113 607,113 C604.239,113 602,110.761 602,108 C602,105.239 604.239,103 607,103 "/>
<path class="a" d="M606,102 L608,102 C610.761,102 613,104.239 613,107 L613,109 C613,111.761 610.761,114 608,114 L606,114 C603.239,114 601,111.761 601,109 L601,107 C601,104.239 603.239,102 606,102 "/>
<path class="e" d="M604,116 L609,116 C611.209,116 613,117.343 613,119 L613,130 C613,131.657 611.209,133 609,133 L604,133 C601.791,133 600,131.657 600,130 L600,119 C600,117.343 601.791,116 604,116 "/>
<text class="g" x="604" y="129">CC</text>
<path class="e" d="M633,101 L635,101 C638.314,101 641,103.686 641,107 L641,109 C641,112.314 638.314,115 635,115 L633,115 C629.686,115 627,112.314 627,109 L627,107 C627,103.686 629.686,101 633,101 M634,103 C636.761,103 639,105.239 639,108 C639,110.761 636.761,113 634,113 C631.239,113 629,110.761 629,108 C629,105.239 631.239,103 634,103 "/>
<path class="a" d="M633,102 L635,102 C637.761,102 640,104.239 640,107 L640,109 C640,111.761 637.761,114 635,114 L633,114 C630.239,114 628,111.761 628,109 L628,107 C628,104.239 630.239,102 633,102 "/>
<path class="e" d="M622,116 L645,116 C647.209,116 649,117.343 649,119 L649,130 C649,131.657 647.209,133 645,133 L622,133 C619.791,133 618,131.657 618,130 L618,119 C618,117.343 619.791,116 622,116 "/>
<text class="g" x="625" y="129">NN</text>
<path class="e" d="M684,101 L686,101 C689.314,101 692,103.686 692,107 L692,109 C692,112.314 689.314,115 686,115 L684,115 C680.686,115 678,112.314 678,109 L678,107 C678,103.686 680.686,101 684,101 M685,103 C687.761,103 690,105.239 690,108 C690,110.761 687.761,113 685,113 C682.239,113 680,110.761 680,108 C680,105.239 682.239,103 685,103 "/>
<path class="a" d="M684,102 L686,102 C688.761,102 691,104.239 691,107 L691,109 C691,111.761 688.761,114 686,114 L684,114 C681.239,114 679,111.761 679,109 L679,107 C679,104.239 681.239,102 684,102 "/>
<path class="e" d="M658,116 L711,116 C713.209,116 715,117.343 715,119 L715,130 C715,131.657 713.209,133 711,133 L658,133 C655.791,133 654,131.657 654,130 L654,119 C654,117.343 655.791,116 658,116 "/>
<text class="g" x="676" y="129">NN</text>
</svg>
