<svg xmlns="http://www.w3.org/2000/svg" viewBox="22 3 1014 103">
<style>
.a{fill:#ECF1FB}
.b{fill:#F9F9F9}
.c{fill:#FFFEED}
.d{fill:#EEFDEC}
.e{fill:#FFFAF2}
.f{font:13px Verdana}
.h{font:10px Helvetica}
.r{font:9px Helvetica}
.g{fill:#A4BCED;stroke:#1A3D85;stroke-width:0.75}
.j{fill:#E3E3E3;stroke:#5A5A5A;stroke-width:0.75}
.l{fill:#FFFDA8;stroke:#A9A500;stroke-width:0.75}
.n{fill:#ADF6A2;stroke:#20940E;stroke-width:0.75}
.p{fill:#FFE8BE;stroke:#B27300;stroke-width:0.75}
.i{fill:none;stroke:#1A3D85;stroke-width:0.5}
.k{fill:none;stroke:#5A5A5A;stroke-width:0.5}
.m{fill:none;stroke:#A9A500;stroke-width:0.5}
.o{fill:none;stroke:#20940E;stroke-width:0.5}
.q{fill:none;stroke:#B27300;stroke-width:0.5}
.s{fill:none;stroke:#000000}
</style>
<path class="a" d="M30.5,79.667h18.733c1.657,0,3,1.343,3,3v8.667c0,1.657-1.343,3-3,3H30.5c-1.657,0-3-1.343-3-3v-8.667C27.5,81.01,28.843,79.667,30.5,79.667z"/>
<path class="a" d="M99.933,79.667h63.433c1.657,0,3,1.343,3,3v8.667c0,1.657-1.343,3-3,3H99.933c-1.657,0-3-1.343-3-3v-8.667C96.933,81.01,98.276,79.667,99.933,79.667z"/>
<path class="b" d="M175.867,79.667H194c1.657,0,3,1.343,3,3v8.667c0,1.657-1.343,3-3,3h-18.133c-1.657,0-3-1.343-3-3v-8.667C172.867,81.01,174.21,79.667,175.867,79.667z"/>
<path class="a" d="M216.083,79.667h11.183c1.657,0,3,1.343,3,3v8.667c0,1.657-1.343,3-3,3h-11.183c-1.657,0-3-1.343-3-3v-8.667C213.083,81.01,214.426,79.667,216.083,79.667z"/>
<path class="b" d="M261.467,79.667L261.467,79.667c1.629,0,2.95,1.343,2.95,3v8.667c0,1.657-1.321,3-2.95,3h0c-1.629,0-2.95-1.343-2.95-3v-8.667C258.517,81.01,259.837,79.667,261.467,79.667z"/>
<path class="a" d="M314.95,79.667h42.417c1.657,0,3,1.343,3,3v8.667c0,1.657-1.343,3-3,3H314.95c-1.657,0-3-1.343-3-3v-8.667C311.95,81.01,313.293,79.667,314.95,79.667z"/>
<path class="a" d="M399.383,79.667h57.283c1.657,0,3,1.343,3,3v8.667c0,1.657-1.343,3-3,3h-57.283c-1.657,0-3-1.343-3-3v-8.667C396.383,81.01,397.726,79.667,399.383,79.667z"/>
<path class="b" d="M481.533,79.667L481.533,79.667c1.307,0,2.367,1.343,2.367,3v8.667c0,1.657-1.06,3-2.367,3l0,0c-1.307,0-2.367-1.343-2.367-3v-8.667C479.167,81.01,480.226,79.667,481.533,79.667z"/>
<path class="c" d="M509.1,79.667h31.433c1.657,0,3,1.343,3,3v8.667c0,1.657-1.343,3-3,3H509.1c-1.657,0-3-1.343-3-3v-8.667C506.1,81.01,507.443,79.667,509.1,79.667z"/>
<path class="d" d="M550.533,79.667h28.55c1.657,0,3,1.343,3,3v8.667c0,1.657-1.343,3-3,3h-28.55c-1.657,0-3-1.343-3-3v-8.667C547.533,81.01,548.876,79.667,550.533,79.667z"/>
<path class="c" d="M589.083,79.667h23.333c1.657,0,3,1.343,3,3v8.667c0,1.657-1.343,3-3,3h-23.333c-1.657,0-3-1.343-3-3v-8.667C586.083,81.01,587.427,79.667,589.083,79.667z"/>
<path class="d" d="M625.917,79.667h9.85c1.657,0,3,1.343,3,3v8.667c0,1.657-1.343,3-3,3h-9.85c-1.657,0-3-1.343-3-3v-8.667C622.917,81.01,624.26,79.667,625.917,79.667z"/>
<path class="d" d="M689.467,79.667H733.2c1.657,0,3,1.343,3,3v8.667c0,1.657-1.343,3-3,3h-43.733c-1.657,0-3-1.343-3-3v-8.667C686.467,81.01,687.81,79.667,689.467,79.667z"/>
<path class="e" d="M746.7,79.667h9.767c1.657,0,3,1.343,3,3v8.667c0,1.657-1.343,3-3,3H746.7c-1.657,0-3-1.343-3-3v-8.667C743.7,81.01,745.043,79.667,746.7,79.667z"/>
<path class="a" d="M779.25,79.667h73.767c1.657,0,3,1.343,3,3v8.667c0,1.657-1.343,3-3,3H779.25c-1.657,0-3-1.343-3-3v-8.667C776.25,81.01,777.593,79.667,779.25,79.667z"/>
<path class="b" d="M870.517,79.667h7.433c1.657,0,3,1.343,3,3v8.667c0,1.657-1.343,3-3,3h-7.433c-1.657,0-3-1.343-3-3v-8.667C867.517,81.01,868.86,79.667,870.517,79.667z"/>
<path class="a" d="M898.733,79.667h25.417c1.657,0,3,1.343,3,3v8.667c0,1.657-1.343,3-3,3h-25.417c-1.657,0-3-1.343-3-3v-8.667C895.733,81.01,897.076,79.667,898.733,79.667z"/>
<path class="a" d="M976.167,79.667h54.583c1.657,0,3,1.343,3,3v8.667c0,1.657-1.343,3-3,3h-54.583c-1.657,0-3-1.343-3-3v-8.667C973.167,81.01,974.51,79.667,976.167,79.667z"/>
<text transform="translate(27.5 91.667)" class="f">ROI</text>
<text transform="translate(96.933 91.667)" class="f">production</text>
<text transform="translate(172.867 91.667)" class="f">and</text>
<text transform="translate(213.083 91.667)" class="f">NF</text>
<text transform="translate(258.517 91.667)" class="f">-</text>
<text transform="translate(311.95 91.667)" class="f">kappaB</text>
<text transform="translate(396.383 91.667)" class="f">activation</text>
<text transform="translate(479.167 91.667)" class="f">,</text>
<text transform="translate(506.1 91.667)" class="f">which</text>
<text transform="translate(547.533 91.667)" class="f">could</text>
<text transform="translate(586.084 91.667)" class="f">both</text>
<text transform="translate(622.917 91.667)" class="f">be</text>
<text transform="translate(686.467 91.667)" class="f">blocked</text>
<text transform="translate(743.7 91.667)" class="f">by</text>
<text transform="translate(776.25 91.667)" class="f">antioxidants</text>
<text transform="translate(867.517 91.667)" class="f">or</text>
<text transform="translate(895.733 91.667)" class="f">FLAP</text>
<text transform="translate(973.167 91.667)" class="f">inhibitors</text>
<g transform="translate(0, 91)">
<g transform="translate(27.5, 0)">
<path class="g" d="M-1.5-28.167h29.433c1.105,0,2,0.448,2,1v8c0,0.552-0.895,1-2,1H-1.5c-1.105,0-2-0.448-2-1v-8C-3.5-27.719-2.605-28.167-1.5-28.167z"/>
<text transform="translate(-2.222 -19.6667)" class="h">NOUN</text>
<path class="i" d="M0-13.167c0-4,12.5,0,12.5-4c0,4,12.233,0,12.233,4"/>
</g>
<g transform="translate(96.933, 0)">
<path class="g" d="M20.5-28.167h29.433c1.105,0,2,0.448,2,1v8c0,0.552-0.895,1-2,1H20.5c-1.105,0-2-0.448-2-1v-8C18.5-27.719,19.395-28.167,20.5-28.167z"/>
<text transform="translate(19.778 -19.6667)" class="h">NOUN</text>
<path class="i" d="M0-13.167c0-4,34.5,0,34.5-4c0,4,34.933,0,34.933,4"/>
</g>
<g transform="translate(172.867, 0)">
<path class="j" d="M-0.5-28.167h27.217c1.105,0,2,0.448,2,1v8c0,0.552-0.895,1-2,1H-0.5c-1.105,0-2-0.448-2-1v-8C-2.5-27.719-1.605-28.167-0.5-28.167z"/>
<text transform="translate(-1.111 -19.6667)" class="h">CONJ</text>
<path class="k" d="M0-13.167c0-4,12.5,0,12.5-4c0,4,11.633,0,11.633,4"/>
</g>
<g transform="translate(213.083, 0)">
<path class="g" d="M-5.5-28.167h29.433c1.105,0,2,0.448,2,1v8c0,0.552-0.895,1-2,1H-5.5c-1.105,0-2-0.448-2-1v-8C-7.5-27.719-6.605-28.167-5.5-28.167z"/>
<text transform="translate(-6.222 -19.6667)" class="h">NOUN</text>
<path class="i" d="M0-13.167c0-4,8.5,0,8.5-4c0,4,8.683,0,8.683,4"/>
</g>
<g transform="translate(258.517, 0)">
<path class="j" d="M-13.5-28.167h34.433c1.105,0,2,0.448,2,1v8c0,0.552-0.895,1-2,1H-13.5c-1.105,0-2-0.448-2-1v-8C-15.5-27.719-14.605-28.167-13.5-28.167z"/>
<text transform="translate(-14.722 -19.6667)"><tspan x="0" y="0" class="h">PUNC</tspan><tspan x="28.335" y="0" class="h">T</tspan></text>
<path class="k" d="M0-13.167c0-4,2.5,0,2.5-4c0,4,3.4,0,3.4,4"/>
</g>
<g transform="translate(311.95, 0)">
<path class="g" d="M9.5-28.167h29.433c1.105,0,2,0.448,2,1v8c0,0.552-0.895,1-2,1H9.5c-1.105,0-2-0.448-2-1v-8C7.5-27.719,8.395-28.167,9.5-28.167z"/>
<text transform="translate(9.778 -19.6667)" class="h">NOUN</text>
<path class="i" d="M0-13.167c0-4,24.5,0,24.5-4c0,4,23.917,0,23.917,4"/>
</g>
<g transform="translate(396.383, 0)">
<path class="g" d="M16.5-28.167h29.433c1.105,0,2,0.448,2,1v8c0,0.552-0.895,1-2,1H16.5c-1.105,0-2-0.448-2-1v-8C14.5-27.719,15.395-28.167,16.5-28.167z"/>
<text transform="translate(16.778 -19.6667)" class="h">NOUN</text>
<path class="i" d="M0-13.167c0-4,31.5,0,31.5-4c0,4,31.783,0,31.783,4"/>
</g>
<g transform="translate(479.167, 0)">
<path class="j" d="M-13.5-28.167h34.433c1.105,0,2,0.448,2,1v8c0,0.552-0.895,1-2,1H-13.5c-1.105,0-2-0.448-2-1v-8C-15.5-27.719-14.605-28.167-13.5-28.167z"/>
<text transform="translate(-14.722 -19.6667)"><tspan x="0" y="0" class="h">PUNC</tspan><tspan x="28.335" y="0" class="h">T</tspan></text>
<path class="k" d="M0-13.167c0-4,2.5,0,2.5-4c0,4,2.233,0,2.233,4"/>
</g>
<g transform="translate(506.1, 0)">
<path class="l" d="M4.5-28.167h28.883c1.105,0,2,0.448,2,1v8c0,0.552-0.895,1-2,1H4.5c-1.105,0-2-0.448-2-1v-8C2.5-27.719,3.395-28.167,4.5-28.167z"/>
<text transform="translate(4.054 -19.6667)" class="h">PRON</text>
<path class="m" d="M0-13.167c0-4,18.5,0,18.5-4c0,4,18.933,0,18.933,4"/>
</g>
<g transform="translate(547.533, 0)">
<path class="n" d="M7.5-28.167h20.55c1.105,0,2,0.448,2,1v8c0,0.552-0.895,1-2,1H7.5c-1.105,0-2-0.448-2-1v-8C5.5-27.719,6.395-28.167,7.5-28.167z"/>
<text transform="translate(7.22 -19.6667)" class="h">AUX</text>
<path class="o" d="M0-13.167c0-4,17.5,0,17.5-4c0,4,17.05,0,17.05,4"/>
</g>
<g transform="translate(586.083, 0)">
<path class="l" d="M4.5-28.167h20.55c1.105,0,2,0.448,2,1v8c0,0.552-0.895,1-2,1H4.5c-1.105,0-2-0.448-2-1v-8C2.5-27.719,3.395-28.167,4.5-28.167z"/>
<text transform="translate(4.22 -19.6667)" class="h">ADV</text>
<path class="m" d="M0-13.167c0-4,14.5,0,14.5-4c0,4,14.833,0,14.833,4"/>
</g>
<g transform="translate(622.917, 0)">
<path class="n" d="M-1.5-28.167h20.55c1.105,0,2,0.448,2,1v8c0,0.552-0.895,1-2,1H-1.5c-1.105,0-2-0.448-2-1v-8C-3.5-27.719-2.605-28.167-1.5-28.167z"/>
<text transform="translate(-2.781 -19.6667)" class="h">AUX</text>
<path class="o" d="M0-13.167c0-4,7.5,0,7.5-4c0,4,8.35,0,8.35,4"/>
</g>
<g transform="translate(686.467, 0)">
<path class="n" d="M11.5-28.167h27.217c1.105,0,2,0.448,2,1v8c0,0.552-0.895,1-2,1H11.5c-1.105,0-2-0.448-2-1v-8C9.5-27.719,10.395-28.167,11.5-28.167z"/>
<text transform="translate(10.884 -19.6667)" class="h">VERB</text>
<path class="o" d="M0-13.167c0-4,24.5,0,24.5-4c0,4,25.233,0,25.233,4"/>
</g>
<g transform="translate(743.7, 0)">
<path class="p" d="M-1.5-28.167h20.55c1.105,0,2,0.448,2,1v8c0,0.552-0.895,1-2,1H-1.5c-1.105,0-2-0.448-2-1v-8C-3.5-27.719-2.605-28.167-1.5-28.167z"/>
<text transform="translate(-2.781 -19.6667)"><tspan x="0" y="0" class="h">AD</tspan><tspan x="13.892" y="0" class="h">P</tspan></text>
<path class="q" d="M0-13.167c0-4,7.5,0,7.5-4c0,4,8.267,0,8.267,4"/>
</g>
<g transform="translate(776.25, 0)">
<path class="g" d="M25.5-28.167h29.433c1.105,0,2,0.448,2,1v8c0,0.552-0.895,1-2,1H25.5c-1.105,0-2-0.448-2-1v-8C23.5-27.719,24.395-28.167,25.5-28.167z"/>
<text transform="translate(24.778 -19.6667)" class="h">NOUN</text>
<path class="i" d="M0-13.167c0-4,39.5,0,39.5-4c0,4,40.267,0,40.267,4"/>
</g>
<g transform="translate(867.517, 0)">
<path class="j" d="M-5.5-28.167h27.217c1.105,0,2,0.448,2,1v8c0,0.552-0.895,1-2,1H-5.5c-1.105,0-2-0.448-2-1v-8C-7.5-27.719-6.605-28.167-5.5-28.167z"/>
<text transform="translate(-7.111 -19.6667)" class="h">CONJ</text>
<path class="k" d="M0-13.167c0-4,6.5,0,6.5-4c0,4,6.933,0,6.933,4"/>
</g>
<g transform="translate(895.733, 0)">
<path class="g" d="M1.5-28.167h29.433c1.105,0,2,0.448,2,1v8c0,0.552-0.895,1-2,1H1.5c-1.105,0-2-0.448-2-1v-8C-0.5-27.719,0.395-28.167,1.5-28.167z"/>
<text transform="translate(0.778 -19.6667)" class="h">NOUN</text>
<path class="i" d="M0-13.167c0-4,15.5,0,15.5-4c0,4,15.917,0,15.917,4"/>
</g>
<g transform="translate(973.167, 0)">
<path class="g" d="M15.5-28.167h29.433c1.105,0,2,0.448,2,1v8c0,0.552-0.895,1-2,1H15.5c-1.105,0-2-0.448-2-1v-8C13.5-27.719,14.395-28.167,15.5-28.167z"/>
<text transform="translate(15.778 -19.6667)" class="h">NOUN</text>
<path class="i" d="M0-13.167c0-4,30.5,0,30.5-4c0,4,30.083,0,30.083,4"/>
</g>
<text transform="translate(289.442 -26)" class="r">punct</text>
<polyline points="287.034,-26.913 281.45,-27.167 285.004,-31.482 285.638,-29.028"/>
<path class="s" d="M288.45-28.5h-1c-2,0-4,0.444-6,1.333"/>
<path class="s" d="M312.45-28.5h1c2,0,4,1.778,6,5.333"/>
<text transform="translate(651.956 -26)" class="r">aux:pass</text>
<polyline points="649.551,-26.913 643.967,-27.167 647.52,-31.482 648.155,-29.028"/>
<path class="s" d="M650.967-28.5h-1c-2,0-4,0.444-6,1.333"/>
<path class="s" d="M688.967-28.5h1c2,0,4,1.778,6,5.333"/>
<text transform="translate(65.418 -26)" class="r">compound</text>
<polyline points="63.018,-26.913 57.433,-27.167 60.987,-31.482 61.622,-29.028"/>
<path class="s" d="M64.433-28.5h-1c-2,0-4,0.444-6,1.333"/>
<path class="s" d="M108.433-28.5h1c2,0,4,1.778,6,5.333"/>
<text transform="translate(772.745 -26)" class="r">case</text>
<polyline points="770.334,-26.913 764.75,-27.167 768.304,-31.482 768.938,-29.028"/>
<path class="s" d="M771.75-28.5h-1c-2,0-4,0.444-6,1.333"/>
<path class="s" d="M792.75-28.5h1c2,0,4,1.778,6,5.333"/>
<text transform="translate(936.652 -26)" class="r">compound</text>
<polyline points="934.251,-26.913 928.667,-27.167 932.22,-31.482 932.855,-29.028"/>
<path class="s" d="M935.667-28.5h-1c-2,0-4,0.444-6,1.333"/>
<path class="s" d="M979.667-28.5h1c2,0,4,1.778,6,5.333"/>
<text transform="translate(360.869 -26)" class="r">compound</text>
<polyline points="358.468,-26.913 352.883,-27.167 356.437,-31.482 357.072,-29.028"/>
<path class="s" d="M359.883-28.5h-1c-2,0-4,0.444-6,1.333"/>
<path class="s" d="M403.883-28.5h1c2,0,4,1.778,6,5.333"/>
<text transform="translate(258.219 -35)" class="r">compound</text>
<polyline points="243.977,-29.745 239.017,-27.167 239.93,-32.682 241.709,-30.876"/>
<path class="s" d="M257.233-37.5h-3.217c-5,0-10,3.444-15,10.333"/>
<path class="s" d="M301.233-37.5h3.217c5,0,10,4.778,15,14.333"/>
<text transform="translate(638.541 -35)" class="r">advmod</text>
<polyline points="618.094,-29.745 613.133,-27.167 614.047,-32.682 615.826,-30.876"/>
<path class="s" d="M637.55-37.5h-9.417c-5,0-10,3.444-15,10.333"/>
<path class="s" d="M671.55-37.5h9.417c5,0,10,4.778,15,14.333"/>
<text transform="translate(934.45 -35)" class="r">cc</text>
<polyline points="896.194,-29.745 891.233,-27.167 892.147,-32.682 893.926,-30.876"/>
<path class="s" d="M933.45-37.5h-27.217c-5,0-10,3.444-15,10.333"/>
<path class="s" d="M944.45-37.5h27.217c5,0,10,4.778,15,14.333"/>
<text transform="translate(757.462 -35)" class="r">obl</text>
<path class="s" d="M756.467-37.5h-14.283c-5,0-10,4.778-15,14.333"/>
<polyline points="798.836,-32.682 799.75,-27.167 794.79,-29.745 797.058,-30.876"/>
<path class="s" d="M770.467-37.5h14.283c5,0,10,3.444,15,10.333"/>
<text transform="translate(629.52 -44)" class="r">aux</text>
<polyline points="581.722,-30.924 577.583,-27.167 577.061,-32.732 579.241,-31.44"/>
<path class="s" d="M628.525-46.5h-35.942c-5,0-10,6.444-15,19.333"/>
<path class="s" d="M645.025-46.5h35.942c5,0,10,7.778,15,23.333"/>
<text transform="translate(301.733 -44)" class="r">cc</text>
<polyline points="205.722,-30.924 201.583,-27.167 201.061,-32.732 203.241,-31.44"/>
<path class="s" d="M300.733-46.5h-84.15c-5,0-10,6.444-15,19.333"/>
<path class="s" d="M311.733-46.5h84.15c5,0,10,7.778,15,23.333"/>
<text transform="translate(901.67 -44)" class="r">conj</text>
<path class="s" d="M900.675-46.5h-52.492c-5,0-10,7.778-15,23.333"/>
<polyline points="987.189,-32.732 986.667,-27.167 982.528,-30.924 985.009,-31.44"/>
<path class="s" d="M919.175-46.5h52.492c5,0,10,6.444,15,19.333"/>
<text transform="translate(597.212 -53)" class="r">nsubj:pass</text>
<polyline points="545.18,-31.36 541.483,-27.167 540.346,-32.64 542.656,-31.597"/>
<path class="s" d="M596.225-55.5h-39.742c-5,0-10,9.444-15,28.333"/>
<path class="s" d="M641.225-55.5h39.742c5,0,10,10.778,15,32.333"/>
<text transform="translate(271.62 -53)" class="r">conj</text>
<path class="s" d="M270.625-55.5H163.867c-5,0-10,10.778-15,32.333"/>
<polyline points="412.021,-32.64 410.883,-27.167 407.187,-31.36 409.71,-31.597"/>
<path class="s" d="M289.125-55.5h106.758c5,0,10,9.444,15,28.333"/>
<text transform="translate(554.888 -62)" class="r">acl:relcl</text>
<path class="s" d="M553.892-64.5h-94.575c-5,0-10,13.778-15,41.333"/>
<polyline points="697.433,-32.561 695.967,-27.167 692.531,-31.576 695.064,-31.66"/>
<path class="s" d="M586.392-64.5h94.575c5,0,10,12.444,15,37.333"/>
<text transform="translate(295.258 -71)" class="r">punct</text>
<path class="s" d="M294.267-73.5h-130.4c-5,0-10,16.778-15,50.333"/>
<polyline points="465.336,-32.502 463.667,-27.167 460.4,-31.703 462.934,-31.691"/>
<path class="s" d="M318.267-73.5h130.4c5,0,10,15.444,15,46.333"/>
</g>
</svg>
